<svg width="20" height="20" viewBox="0 0 20 20" fill="none" xmlns="http://www.w3.org/2000/svg">
<path d="M7.8125 9.09609C7.90753 9.04123 7.98644 8.96231 8.0413 8.86727C8.09616 8.77223 8.12502 8.66442 8.125 8.55469V2.92969C8.12444 2.83004 8.10007 2.73198 8.05391 2.64367C8.00775 2.55536 7.94114 2.47936 7.85965 2.42202C7.77815 2.36469 7.68412 2.32766 7.58541 2.31405C7.4867 2.30043 7.38616 2.31062 7.29219 2.34375C5.46795 2.98939 3.93384 4.26457 2.96564 5.94005C1.99743 7.61554 1.65864 9.58145 2.01016 11.4844C2.02838 11.5828 2.06996 11.6754 2.13141 11.7544C2.19286 11.8333 2.27238 11.8964 2.36328 11.9383C2.4452 11.9766 2.53457 11.9963 2.625 11.9961C2.7347 11.9961 2.84247 11.9673 2.9375 11.9125L7.8125 9.09609ZM6.875 3.87656V8.19375L3.13437 10.3523C3.125 10.2344 3.125 10.1156 3.125 10C3.12611 8.73309 3.47679 7.49106 4.13843 6.41066C4.80008 5.33025 5.74702 4.45337 6.875 3.87656ZM18.125 10C18.1256 11.7837 17.5393 13.518 16.4564 14.9354C15.3735 16.3528 13.8544 17.3745 12.1332 17.8428C10.4121 18.3111 8.58472 18.2 6.93299 17.5267C5.28126 16.8534 3.89698 15.6553 2.99375 14.1172C2.95164 14.0461 2.92404 13.9675 2.91252 13.8857C2.901 13.8039 2.90581 13.7207 2.92666 13.6407C2.94751 13.5608 2.98399 13.4859 3.03399 13.4201C3.08399 13.3544 3.14652 13.2992 3.21797 13.2578L9.375 9.67422V2.5C9.375 2.33424 9.44085 2.17527 9.55806 2.05806C9.67527 1.94085 9.83424 1.875 10 1.875C11.4179 1.87572 12.8109 2.24729 14.0408 2.95282C15.2706 3.65834 16.2946 4.67328 17.0109 5.89688C17.0195 5.90938 17.0273 5.92188 17.0352 5.93516C17.043 5.94844 17.0508 5.96406 17.0578 5.97812C17.7588 7.20247 18.1268 8.58916 18.125 10Z" fill="white"/>
</svg>
