<svg width="14" height="14" viewBox="0 0 14 14" fill="none" xmlns="http://www.w3.org/2000/svg">
<path d="M5.16667 13.6667L4.9 11.5333C4.75555 11.4778 4.61944 11.4111 4.49167 11.3333C4.36389 11.2556 4.23889 11.1722 4.11667 11.0833L2.13333 11.9167L0.299999 8.75001L2.01667 7.45001C2.00555 7.37223 2 7.29723 2 7.22501V6.77501C2 6.70279 2.00555 6.62779 2.01667 6.55001L0.299999 5.25001L2.13333 2.08334L4.11667 2.91668C4.23889 2.82779 4.36667 2.74445 4.5 2.66668C4.63333 2.5889 4.76667 2.52223 4.9 2.46668L5.16667 0.333344H8.83333L9.1 2.46668C9.24444 2.52223 9.38055 2.5889 9.50833 2.66668C9.63611 2.74445 9.76111 2.82779 9.88333 2.91668L11.8667 2.08334L13.7 5.25001L11.9833 6.55001C11.9944 6.62779 12 6.70279 12 6.77501V7.22501C12 7.29723 11.9889 7.37223 11.9667 7.45001L13.6833 8.75001L11.85 11.9167L9.88333 11.0833C9.76111 11.1722 9.63333 11.2556 9.5 11.3333C9.36667 11.4111 9.23333 11.4778 9.1 11.5333L8.83333 13.6667H5.16667ZM6.33333 12.3333H7.65L7.88333 10.5667C8.22778 10.4778 8.54722 10.3472 8.84167 10.175C9.13611 10.0028 9.40555 9.79445 9.65 9.55001L11.3 10.2333L11.95 9.10001L10.5167 8.01668C10.5722 7.86112 10.6111 7.69723 10.6333 7.52501C10.6556 7.35279 10.6667 7.17779 10.6667 7.00001C10.6667 6.82223 10.6556 6.64723 10.6333 6.47501C10.6111 6.30279 10.5722 6.1389 10.5167 5.98334L11.95 4.90001L11.3 3.76668L9.65 4.46668C9.40555 4.21112 9.13611 3.99723 8.84167 3.82501C8.54722 3.65279 8.22778 3.52223 7.88333 3.43334L7.66667 1.66668H6.35L6.11667 3.43334C5.77222 3.52223 5.45278 3.65279 5.15833 3.82501C4.86389 3.99723 4.59444 4.20557 4.35 4.45001L2.7 3.76668L2.05 4.90001L3.48333 5.96668C3.42778 6.13334 3.38889 6.30001 3.36667 6.46668C3.34444 6.63334 3.33333 6.81112 3.33333 7.00001C3.33333 7.17779 3.34444 7.35001 3.36667 7.51668C3.38889 7.68334 3.42778 7.85001 3.48333 8.01668L2.05 9.10001L2.7 10.2333L4.35 9.53334C4.59444 9.7889 4.86389 10.0028 5.15833 10.175C5.45278 10.3472 5.77222 10.4778 6.11667 10.5667L6.33333 12.3333ZM7.03333 9.33334C7.67778 9.33334 8.22778 9.10557 8.68333 8.65001C9.13889 8.19446 9.36667 7.64445 9.36667 7.00001C9.36667 6.35557 9.13889 5.80557 8.68333 5.35001C8.22778 4.89445 7.67778 4.66668 7.03333 4.66668C6.37778 4.66668 5.825 4.89445 5.375 5.35001C4.925 5.80557 4.7 6.35557 4.7 7.00001C4.7 7.64445 4.925 8.19446 5.375 8.65001C5.825 9.10557 6.37778 9.33334 7.03333 9.33334Z" fill="#FEF7FF"/>
</svg>
