<svg width="16" height="18" viewBox="0 0 16 18" fill="none" xmlns="http://www.w3.org/2000/svg">
<path d="M15.3281 12.7453C14.8945 11.9984 14.25 9.88516 14.25 7.125C14.25 5.4674 13.5915 3.87769 12.4194 2.70558C11.2473 1.53348 9.6576 0.875 8 0.875C6.3424 0.875 4.75269 1.53348 3.58058 2.70558C2.40848 3.87769 1.75 5.4674 1.75 7.125C1.75 9.88594 1.10469 11.9984 0.671094 12.7453C0.560368 12.9352 0.501668 13.1509 0.500913 13.3707C0.500159 13.5905 0.557377 13.8066 0.666796 13.9973C0.776216 14.1879 0.933969 14.3463 1.12415 14.4565C1.31432 14.5667 1.5302 14.6248 1.75 14.625H4.93828C5.08248 15.3306 5.46596 15.9647 6.02385 16.4201C6.58175 16.8756 7.27983 17.1243 8 17.1243C8.72018 17.1243 9.41825 16.8756 9.97615 16.4201C10.534 15.9647 10.9175 15.3306 11.0617 14.625H14.25C14.4697 14.6247 14.6855 14.5665 14.8756 14.4562C15.0656 14.346 15.2233 14.1875 15.3326 13.9969C15.4419 13.8063 15.4991 13.5903 15.4983 13.3705C15.4975 13.1508 15.4388 12.9351 15.3281 12.7453ZM8 15.875C7.61236 15.8749 7.23428 15.7546 6.91781 15.5308C6.60134 15.3069 6.36203 14.9905 6.23281 14.625H9.76719C9.63797 14.9905 9.39866 15.3069 9.08219 15.5308C8.76572 15.7546 8.38764 15.8749 8 15.875ZM1.75 13.375C2.35156 12.3406 3 9.94375 3 7.125C3 5.79892 3.52678 4.52715 4.46447 3.58947C5.40215 2.65178 6.67392 2.125 8 2.125C9.32608 2.125 10.5979 2.65178 11.5355 3.58947C12.4732 4.52715 13 5.79892 13 7.125C13 9.94141 13.6469 12.3383 14.25 13.375H1.75Z" fill="white"/>
</svg>
