<svg width="150" height="34" viewBox="0 0 150 34" fill="none" xmlns="http://www.w3.org/2000/svg">
<g clip-path="url(#clip0_10_1807)">
<path d="M10.4646 0.731438L0.445312 7.2373L10.4646 13.7432L20.4839 7.2373L10.4646 0.731438Z" fill="#82FF83"/>
<path d="M0.445312 7.23925V13.7451L10.4646 20.251V13.7451L0.445312 7.23925Z" fill="#F3F3F3"/>
<path d="M20.4802 7.23925V13.7451L10.4609 20.251V13.7451L20.4802 7.23925Z" fill="#CFCCCF"/>
<path d="M10.4646 0.731438L0.445312 7.2373L10.4646 13.7432L20.4839 7.2373L10.4646 0.731438Z" fill="#82FF83"/>
<path d="M0.445312 7.23925V13.7451L10.4646 20.251V13.7451L0.445312 7.23925Z" fill="#F3F3F3"/>
<path d="M20.4802 7.23925V13.7451L10.4609 20.251V13.7451L20.4802 7.23925Z" fill="#CFCCCF"/>
<path d="M10.4646 20.69C10.38 20.69 10.2954 20.6677 10.2241 20.6187L0.204839 14.1129C0.0801544 14.0327 0 13.8902 0 13.7388V7.23294C0 7.06817 0.0890604 6.92122 0.231557 6.84107C0.374054 6.76092 0.552175 6.76982 0.685765 6.85888L10.7051 13.3647C10.8298 13.4449 10.9099 13.5874 10.9099 13.7388V20.2447C10.9099 20.4094 10.8208 20.5564 10.6783 20.6365C10.6116 20.6722 10.5403 20.69 10.4646 20.69ZM0.890604 13.4983L10.0193 19.4253V13.9837L0.890604 8.05229V13.4983Z" fill="#231F20"/>
<path d="M10.4609 20.696C10.3897 20.696 10.314 20.6782 10.2472 20.6426C10.1047 20.5669 10.0156 20.4155 10.0156 20.2507V13.7448C10.0156 13.5934 10.0913 13.4554 10.2205 13.3708L20.2398 6.86491C20.3778 6.77585 20.5515 6.7714 20.694 6.8471C20.8365 6.9228 20.9255 7.0742 20.9255 7.23897V13.7448C20.9255 13.8962 20.8498 14.0343 20.7207 14.1189L10.7014 20.6247C10.6257 20.6737 10.5411 20.696 10.4609 20.696ZM10.9062 13.9897V19.4313L20.0349 13.5044V8.05832L10.9062 13.9853V13.9897Z" fill="#231F20"/>
<path d="M10.4646 14.1873C10.38 14.1873 10.2954 14.1651 10.2241 14.1161L0.204839 7.61023C0.0801544 7.53008 0 7.38758 0 7.23618C0 7.08478 0.0757014 6.94673 0.204839 6.86213L10.2241 0.35626C10.3711 0.262747 10.5626 0.262747 10.7095 0.35626L20.7288 6.86213C20.8535 6.94228 20.9337 7.08478 20.9337 7.23618C20.9337 7.38758 20.858 7.52563 20.7288 7.61023L10.7095 14.1161C10.6338 14.1651 10.5492 14.1873 10.4691 14.1873H10.4646ZM1.26466 7.23618L10.4646 13.2121L19.6645 7.23618L10.4646 1.26022L1.26466 7.23618Z" fill="#231F20"/>
<path d="M30.5037 0.731438L20.4844 7.2373L30.5037 13.7432L40.523 7.2373L30.5037 0.731438Z" fill="#82FF83"/>
<path d="M20.4844 7.23925V13.7451L30.5037 20.251V13.7451L20.4844 7.23925Z" fill="#F3F3F3"/>
<path d="M40.5193 7.23925V13.7451L30.5 20.251V13.7451L40.5193 7.23925Z" fill="#CFCCCF"/>
<path d="M30.5037 0.731438L20.4844 7.2373L30.5037 13.7432L40.523 7.2373L30.5037 0.731438Z" fill="#0B65FA"/>
<path d="M20.4844 7.23925V13.7451L30.5037 20.251V13.7451L20.4844 7.23925Z" fill="#F3F3F3"/>
<path d="M40.5193 7.23925V13.7451L30.5 20.251V13.7451L40.5193 7.23925Z" fill="#CFCCCF"/>
<path d="M30.5037 20.696C30.4191 20.696 30.3344 20.6737 30.2632 20.6247L20.2439 14.1189C20.1192 14.0387 20.0391 13.8962 20.0391 13.7448V7.23897C20.0391 7.0742 20.1281 6.92725 20.2706 6.8471C20.4131 6.7714 20.5868 6.77585 20.7248 6.86491L30.7441 13.3708C30.8688 13.4509 30.949 13.5934 30.949 13.7448V20.2507C30.949 20.4155 30.8599 20.5624 30.7174 20.6426C30.6506 20.6782 30.5794 20.696 30.5037 20.696ZM20.9297 13.5044L30.0584 19.4313V13.9897L20.9297 8.06277V13.5088V13.5044Z" fill="#231F20"/>
<path d="M30.5078 20.696C30.4366 20.696 30.3609 20.6782 30.2941 20.6426C30.1516 20.5669 30.0625 20.4155 30.0625 20.2507V13.7448C30.0625 13.5934 30.1382 13.4554 30.2673 13.3708L40.2866 6.86491C40.4247 6.77585 40.5984 6.7714 40.7408 6.8471C40.8833 6.9228 40.9724 7.0742 40.9724 7.23897V13.7448C40.9724 13.8962 40.8967 14.0343 40.7676 14.1189L30.7483 20.6247C30.6726 20.6737 30.588 20.696 30.5078 20.696ZM30.9531 13.9897V19.4313L40.0818 13.5044V8.05832L30.9531 13.9853V13.9897Z" fill="#231F20"/>
<path d="M30.5037 14.1873C30.4191 14.1873 30.3344 14.1651 30.2632 14.1161L20.2439 7.61023C20.1192 7.53008 20.0391 7.38758 20.0391 7.23618C20.0391 7.08478 20.1148 6.94673 20.2439 6.86213L30.2632 0.35626C30.4102 0.262747 30.6016 0.262747 30.7486 0.35626L40.7679 6.86213C40.8926 6.94228 40.9727 7.08478 40.9727 7.23618C40.9727 7.38758 40.897 7.52563 40.7679 7.61023L30.7486 14.1161C30.6729 14.1651 30.5883 14.1873 30.5081 14.1873H30.5037ZM21.3037 7.23618L30.5037 13.2121L39.7036 7.23618L30.5037 1.26022L21.3037 7.23618Z" fill="#231F20"/>
<path d="M20.4802 7.23925L10.4609 13.7451L20.4802 20.251L30.4995 13.7451L20.4802 7.23925Z" fill="#82FF83"/>
<path d="M10.4609 13.7471V20.2529L20.4802 26.7588V20.2529L10.4609 13.7471Z" fill="#F3F3F3"/>
<path d="M30.4959 13.7471V20.2529L20.4766 26.7588V20.2529L30.4959 13.7471Z" fill="#CFCCCF"/>
<path d="M20.4802 7.23925L10.4609 13.7451L20.4802 20.251L30.4995 13.7451L20.4802 7.23925Z" fill="#82FF83"/>
<path d="M10.4609 13.7471V20.2529L20.4802 26.7588V20.2529L10.4609 13.7471Z" fill="#F3F3F3"/>
<path d="M30.4959 13.7471V20.2529L20.4766 26.7588V20.2529L30.4959 13.7471Z" fill="#CFCCCF"/>
<path d="M20.4802 27.1978C20.3956 27.1978 20.311 27.1755 20.2398 27.1265L10.2205 20.6207C10.0958 20.5405 10.0156 20.398 10.0156 20.2466V13.7407C10.0156 13.576 10.1047 13.429 10.2472 13.3489C10.3897 13.2687 10.5633 13.2776 10.7014 13.3667L20.7207 19.8726C20.8454 19.9527 20.9255 20.0952 20.9255 20.2466V26.7525C20.9255 26.9172 20.8365 27.0642 20.694 27.1443C20.6272 27.18 20.5559 27.1978 20.4802 27.1978ZM10.9062 20.0062L20.0349 25.9331V20.4915L10.9062 14.5646V20.0106V20.0062Z" fill="#231F20"/>
<path d="M20.4766 27.2038C20.4053 27.2038 20.3296 27.186 20.2628 27.1504C20.1203 27.0747 20.0312 26.9233 20.0312 26.7585V20.2526C20.0312 20.1012 20.107 19.9632 20.2361 19.8786L30.2554 13.3727C30.3934 13.2837 30.5671 13.2792 30.7096 13.3549C30.8521 13.4306 30.9412 13.582 30.9412 13.7468V20.2526C30.9412 20.404 30.8655 20.5421 30.7363 20.6267L20.717 27.1326C20.6413 27.1815 20.5567 27.2038 20.4766 27.2038ZM20.9219 20.4976V25.9392L30.0505 20.0122V14.5661L20.9219 20.4931V20.4976Z" fill="#231F20"/>
<path d="M20.4802 20.6952C20.3956 20.6952 20.311 20.6729 20.2398 20.6239L10.2205 14.118C10.0958 14.0379 10.0156 13.8954 10.0156 13.744C10.0156 13.5926 10.0913 13.4545 10.2205 13.3699L20.2398 6.86407C20.3867 6.77056 20.5782 6.77056 20.7251 6.86407L30.7444 13.3699C30.8691 13.4501 30.9493 13.5926 30.9493 13.744C30.9493 13.8954 30.8736 14.0334 30.7444 14.118L20.7251 20.6239C20.6494 20.6729 20.5648 20.6952 20.4847 20.6952H20.4802ZM11.2803 13.744L20.4802 19.7199L29.6802 13.744L20.4802 7.76804L11.2803 13.744Z" fill="#231F20"/>
<path d="M10.4646 13.7471L0.445312 20.2529L10.4646 26.7588L20.4839 20.2529L10.4646 13.7471Z" fill="#82FF83"/>
<path d="M0.445312 20.2549V26.7607L10.4646 33.2666V26.7607L0.445312 20.2549Z" fill="#F3F3F3"/>
<path d="M20.4802 20.2549V26.7607L10.4609 33.2666V26.7607L20.4802 20.2549Z" fill="#CFCCCF"/>
<path d="M10.4646 13.7471L0.445312 20.2529L10.4646 26.7588L20.4839 20.2529L10.4646 13.7471Z" fill="#0B65FA"/>
<path d="M0.445312 20.2549V26.7607L10.4646 33.2666V26.7607L0.445312 20.2549Z" fill="#F3F3F3"/>
<path d="M20.4802 20.2549V26.7607L10.4609 33.2666V26.7607L20.4802 20.2549Z" fill="#CFCCCF"/>
<path d="M10.4646 33.7056C10.38 33.7056 10.2954 33.6833 10.2241 33.6344L0.204839 27.1285C0.0801544 27.0483 0 26.9058 0 26.7544V20.2486C0 20.0838 0.0890604 19.9369 0.231557 19.8567C0.374054 19.7765 0.552175 19.7855 0.685765 19.8745L10.7051 26.3804C10.8298 26.4605 10.9099 26.603 10.9099 26.7544V33.2603C10.9099 33.4251 10.8208 33.572 10.6783 33.6522C10.6116 33.6878 10.5403 33.7056 10.4646 33.7056ZM0.890604 26.514L10.0193 32.4409V26.9994L0.890604 21.0679V26.514Z" fill="#231F20"/>
<path d="M10.4609 33.7116C10.3897 33.7116 10.314 33.6938 10.2472 33.6582C10.1047 33.5825 10.0156 33.4311 10.0156 33.2663V26.7605C10.0156 26.6091 10.0913 26.471 10.2205 26.3864L20.2398 19.8805C20.3778 19.7915 20.5515 19.787 20.694 19.8627C20.8365 19.9384 20.9255 20.0898 20.9255 20.2546V26.7605C20.9255 26.9119 20.8498 27.0499 20.7207 27.1345L10.7014 33.6404C10.6257 33.6894 10.5411 33.7116 10.4609 33.7116ZM10.9062 27.0054V32.447L20.0349 26.52V21.074L10.9062 27.0009V27.0054Z" fill="#231F20"/>
<path d="M10.4646 27.203C10.38 27.203 10.2954 27.1807 10.2241 27.1317L0.204839 20.6259C0.0801544 20.5457 0 20.4032 0 20.2518C0 20.1004 0.0757014 19.9624 0.204839 19.8778L10.2241 13.3719C10.3711 13.2784 10.5626 13.2784 10.7095 13.3719L20.7288 19.8778C20.8535 19.9579 20.9337 20.1004 20.9337 20.2518C20.9337 20.4032 20.858 20.5413 20.7288 20.6259L10.7095 27.1317C10.6338 27.1807 10.5492 27.203 10.4691 27.203H10.4646ZM1.26466 20.2518L10.4646 26.2278L19.6645 20.2518L10.4646 14.2759L1.26466 20.2518Z" fill="#231F20"/>
<path d="M30.5115 13.7471L20.4922 20.2529L30.5115 26.7588L40.5308 20.2529L30.5115 13.7471Z" fill="#82FF83"/>
<path d="M20.4922 20.2549V26.7607L30.5115 33.2666V26.7607L20.4922 20.2549Z" fill="#F3F3F3"/>
<path d="M40.5193 20.2549V26.7607L30.5 33.2666V26.7607L40.5193 20.2549Z" fill="#CFCCCF"/>
<path d="M30.5115 13.7471L20.4922 20.2529L30.5115 26.7588L40.5308 20.2529L30.5115 13.7471Z" fill="#82FF83"/>
<path d="M20.4922 20.2549V26.7607L30.5115 33.2666V26.7607L20.4922 20.2549Z" fill="#F3F3F3"/>
<path d="M40.5193 20.2549V26.7607L30.5 33.2666V26.7607L40.5193 20.2549Z" fill="#CFCCCF"/>
<path d="M30.5037 33.7116C30.4191 33.7116 30.3344 33.6894 30.2632 33.6404L20.2439 27.1345C20.1192 27.0544 20.0391 26.9119 20.0391 26.7605V20.2546C20.0391 20.0898 20.1281 19.9429 20.2706 19.8627C20.4131 19.787 20.5868 19.7915 20.7248 19.8805L30.7441 26.3864C30.8688 26.4666 30.949 26.6091 30.949 26.7605V33.2663C30.949 33.4311 30.8599 33.578 30.7174 33.6582C30.6506 33.6938 30.5794 33.7116 30.5037 33.7116ZM20.9297 26.52L30.0584 32.447V27.0054L20.9297 21.0784V26.5244V26.52Z" fill="#231F20"/>
<path d="M30.5078 33.7116C30.4366 33.7116 30.3609 33.6938 30.2941 33.6582C30.1516 33.5825 30.0625 33.4311 30.0625 33.2663V26.7605C30.0625 26.6091 30.1382 26.471 30.2673 26.3864L40.2866 19.8805C40.4247 19.7915 40.5984 19.787 40.7408 19.8627C40.8833 19.9384 40.9724 20.0898 40.9724 20.2546V26.7605C40.9724 26.9119 40.8967 27.0499 40.7676 27.1345L30.7483 33.6404C30.6726 33.6894 30.588 33.7116 30.5078 33.7116ZM30.9531 27.0054V32.447L40.0818 26.52V21.0739L30.9531 27.0009V27.0054Z" fill="#231F20"/>
<path d="M30.5037 27.203C30.4191 27.203 30.3344 27.1807 30.2632 27.1317L20.2439 20.6259C20.1192 20.5457 20.0391 20.4032 20.0391 20.2518C20.0391 20.1004 20.1148 19.9624 20.2439 19.8778L30.2632 13.3719C30.4102 13.2784 30.6016 13.2784 30.7486 13.3719L40.7679 19.8778C40.8926 19.9579 40.9727 20.1004 40.9727 20.2518C40.9727 20.4032 40.897 20.5413 40.7679 20.6259L30.7486 27.1317C30.6729 27.1807 30.5883 27.203 30.5081 27.203H30.5037ZM21.3037 20.2518L30.5037 26.2278L39.7036 20.2518L30.5037 14.2758L21.3037 20.2518Z" fill="#231F20"/>
</g>
<path d="M58.2414 11.6768H60.2091C64.1167 11.6768 66.0527 12.9648 66.0409 15.5686H63.3304C63.3462 14.4465 62.1333 13.8735 59.7547 13.8735H58.6958C56.1355 13.8735 54.7882 15.0233 54.7882 17.2517C54.7882 19.4801 56.1355 20.6299 58.6958 20.6299H59.7547C62.1017 20.6299 63.3146 19.9503 63.3304 18.6148L58.0162 18.5832V16.6907H66.0409V18.5516C66.0409 21.3687 64.0732 22.8227 60.2091 22.8227H58.2414C54.1837 22.8227 52.1094 20.9302 52.1094 17.2517C52.1094 13.5733 54.1837 11.6768 58.2414 11.6768Z" fill="white"/>
<path d="M70.2169 20.4916L68.5061 22.2775H65.3413L75.3652 11.6768H78.123L88.2536 22.2775H85.1046L83.3464 20.4916H70.2169ZM76.7441 13.7234L72.2913 18.358H81.2562L76.7441 13.7234Z" fill="white"/>
<path d="M89.0542 11.6768H91.6303L96.5533 18.6267L101.472 11.6768H104.049V22.2775H101.472V15.6594L97.5056 21.3095L95.5972 21.3253L91.6303 15.6634V22.2814H89.0542V11.6768Z" fill="white"/>
<path d="M106.419 11.6768H108.995V22.2775H106.419V11.6768Z" fill="white"/>
<path d="M134.085 22.2775H131.54L113.942 14.237V22.2775H111.366V11.6768H113.895L131.508 19.7488V11.6768H134.085V22.2775Z" fill="white"/>
<path d="M142.185 11.6768H144.153C148.06 11.6768 149.996 12.9648 149.984 15.5686H147.274C147.29 14.4465 146.077 13.8735 143.698 13.8735H142.639C140.079 13.8735 138.732 15.0233 138.732 17.2517C138.732 19.4801 140.079 20.6299 142.639 20.6299H143.698C146.045 20.6299 147.258 19.9503 147.274 18.6148L141.96 18.5832V16.6907H149.988V18.5516C149.988 21.3687 148.021 22.8227 144.156 22.8227H142.189C138.131 22.8227 136.057 20.9302 136.057 17.2517C136.057 13.5733 138.131 11.6768 142.189 11.6768L142.185 11.6768Z" fill="white"/>
<defs>
<clipPath id="clip0_10_1807">
<rect width="40.9678" height="33.4199" fill="white" transform="translate(0 0.290031)"/>
</clipPath>
</defs>
</svg>
